<?xml version="1.0" encoding="utf-8"?>
<!-- Generator: Adobe Illustrator 17.1.0, SVG Export Plug-In . SVG Version: 6.00 Build 0)  -->
<!DOCTYPE svg PUBLIC "-//W3C//DTD SVG 1.1//EN" "http://www.w3.org/Graphics/SVG/1.1/DTD/svg11.dtd">
<svg version="1.1" id="Layer_1" xmlns="http://www.w3.org/2000/svg" xmlns:xlink="http://www.w3.org/1999/xlink" x="0px" y="0px"
	 width="1400px" height="980px" viewBox="0 0 1400 980" enable-background="new 0 0 1400 980" xml:space="preserve">
<g>
	<g>
		<rect x="0" y="0" fill-rule="evenodd" clip-rule="evenodd" fill="#3B602D" width="1400" height="980"/>
		<path fill-rule="evenodd" clip-rule="evenodd" fill="#5E9741" d="M700,800.5H0c0-386.6,313.4-700,700-700s700,313.4,700,700H700z"
			/>
		<path fill-rule="evenodd" clip-rule="evenodd" fill="#3B602D" d="M369.8,654.2c40.4,0,73.1,32.7,73.1,73.1
			c0,40.4-32.7,73.1-73.1,73.1s-73.1-32.7-73.1-73.1C296.6,687,329.4,654.2,369.8,654.2"/>
		<polygon fill-rule="evenodd" clip-rule="evenodd" fill="#3B602D" points="1226.6,734 1171.7,734 1151.6,734 992.1,734 972,734 
			812.4,734 792.3,734 737.4,734 737.4,754.1 792.3,754.1 792.3,802.6 812.4,802.6 812.4,754.1 972,754.1 972,802.6 992.1,802.6 
			992.1,754.1 1151.6,754.1 1151.6,802.6 1171.7,802.6 1171.7,754.1 1226.6,754.1 		"/>
		<path fill-rule="evenodd" clip-rule="evenodd" fill="#3B602D" d="M733.1,384.2v217.7h477.7V384.2H733.1z M753.2,585.5V400.7h119.4
			l-64.2,184.8H753.2z M829.4,585.5l64.2-184.8h52.2l-64.2,184.8H829.4z M1190.8,585.5h-265L990,400.7h200.7V585.5z"/>
		<path fill="#3B602D" d="M1084.6,775.5c0-2.4,1.9-4.3,4.3-4.3c2.4,0,4.3,1.9,4.3,4.3v7.2h19.9v-7.2c0-2.4,1.9-4.3,4.3-4.3
			c2.4,0,4.3,1.9,4.3,4.3v0.9c2.2,0.2,3.9,2,3.9,4.2v12.8c0,2.2-1.7,4-3.9,4.2v0.9c0,2.4-1.9,4.3-4.3,4.3c-2.4,0-4.3-1.9-4.3-4.3
			v-7.2h-19.9v7.2c0,2.4-1.9,4.3-4.3,4.3c-2.4,0-4.3-1.9-4.3-4.3v-0.9c-2.2-0.2-3.9-2-3.9-4.2v-12.8c0-2.2,1.7-4,3.9-4.2V775.5z"/>
		<path fill-rule="evenodd" clip-rule="evenodd" fill="#3B602D" d="M462.1,384.2v416.3h224.8V384.2H462.1z M480.2,403.3h9.3
			l-9.3,26.6V403.3z M480.2,601.9V490.6l30.3-87.3h52.2l-68.8,198.6H480.2z M668.9,601.9H538.1l68.8-198.6h62V601.9z"/>
		<path fill="#3B602D" d="M177.2,774.5c0-2.4,1.9-4.3,4.3-4.3c2.4,0,4.3,1.9,4.3,4.3v7.2h68.1v-7.2c0-2.4,1.9-4.3,4.3-4.3
			c2.4,0,4.3,1.9,4.3,4.3v0.9c2.2,0.2,3.9,2,3.9,4.2v12.8c0,2.2-1.7,4-3.9,4.2v0.9c0,2.4-1.9,4.3-4.3,4.3c-2.4,0-4.3-1.9-4.3-4.3
			v-7.2h-68.1v7.2c0,2.4-1.9,4.3-4.3,4.3c-2.4,0-4.3-1.9-4.3-4.3v-0.9c-2.2-0.2-3.9-2-3.9-4.2v-12.8c0-2.2,1.7-4,3.9-4.2V774.5z"/>
		<path fill-rule="evenodd" clip-rule="evenodd" fill="#3B602D" d="M175.8,384.2v217.7h238.4V384.2H175.8z M195.9,585.5V400.7h93
			l-64.2,184.9H195.9z M245.7,585.5L310,400.7h23.4l-64.2,184.9H245.7z M394.1,585.5h-80.8l64.2-184.9h16.5V585.5z"/>
		<rect x="689.7" y="4.4" fill-rule="evenodd" clip-rule="evenodd" fill="#3B602D" width="20.6" height="244.7"/>
		<path fill-rule="evenodd" clip-rule="evenodd" fill="#3B602D" d="M639.6,237.7h120.9c6.3,0,11.5,5.2,11.5,11.5v0
			c0,6.3-5.2,11.5-11.5,11.5H639.6c-6.3,0-11.5-5.2-11.5-11.5v0C628,242.9,633.2,237.7,639.6,237.7"/>
		<path fill-rule="evenodd" clip-rule="evenodd" fill="#3B602D" d="M669.4,252.4h61.3v0c0,12.7-10.4,23-23,23h-15.2
			C679.7,275.5,669.4,265.1,669.4,252.4L669.4,252.4z"/>
	</g>
	<g>
		<path fill-rule="evenodd" clip-rule="evenodd" fill="#263719" d="M945.4,882.8c92,0,166.5,7.7,166.5,17.2
			c0,9.5-74.5,17.2-166.5,17.2c-92,0-166.5-7.7-166.5-17.2C778.9,890.5,853.4,882.8,945.4,882.8"/>
		<g>
			<path fill="#3B602D" d="M1013.3,708.5c0-2.4,1.9-4.3,4.3-4.3c2.4,0,4.3,1.9,4.3,4.3v7.2h19.9v-7.2c0-2.4,1.9-4.3,4.3-4.3
				c2.4,0,4.3,1.9,4.3,4.3v0.9c2.2,0.2,3.9,2,3.9,4.2v12.8c0,2.2-1.7,4-3.9,4.2v0.9c0,2.4-1.9,4.3-4.3,4.3c-2.4,0-4.3-1.9-4.3-4.3
				v-7.2h-19.9v7.2c0,2.4-1.9,4.3-4.3,4.3c-2.4,0-4.3-1.9-4.3-4.3v-0.9c-2.2-0.2-3.9-2-3.9-4.2v-12.8c0-2.2,1.7-4,3.9-4.2V708.5z"/>
			<path fill-rule="evenodd" clip-rule="evenodd" fill="#FDCC97" d="M798.3,605.2c9.4,0,17,7.6,17,17c0,9.4-7.6,17-17,17
				c-9.4,0-17-7.6-17-17C781.3,612.8,788.9,605.2,798.3,605.2"/>
			<rect x="1000.5" y="700.1" fill-rule="evenodd" clip-rule="evenodd" fill="#000001" width="76.8" height="183.5"/>
			<path fill-rule="evenodd" clip-rule="evenodd" fill="#D04646" d="M1048.3,870.8h-30.2c-17.8,0-32.4,14.6-32.4,32.4h57.1
				c3,0,5.5-2.5,5.5-5.5V870.8z"/>
			<path fill-rule="evenodd" clip-rule="evenodd" fill="#1B1B1B" d="M1033.8,764.7h-12.2v-64.6h76.8
				C1098.4,735.6,1069.3,764.7,1033.8,764.7"/>
			<path fill-rule="evenodd" clip-rule="evenodd" fill="#43BB90" d="M1000.5,509.3L1000.5,509.3v190.8h97.9v-92.9
				C1098.4,553.3,1054.3,509.3,1000.5,509.3"/>
			<path fill-rule="evenodd" clip-rule="evenodd" fill="#008E67" d="M1000.5,663.1v26c10.3-5,19.7-11,28.2-17.7
				c27.8-22.2,44.9-53.1,44.9-87.3h0v0l0-1.1l0-0.3l0-1.3c-0.1-6.3-5.4-11.4-11.7-11.2c-6.3,0.1-11.4,5.4-11.2,11.7l0,1.3l0,0l0,1h0
				c0,27-13.8,51.5-36.2,69.4C1010,656.9,1005.4,660.2,1000.5,663.1"/>
			<path fill-rule="evenodd" clip-rule="evenodd" fill="#DBAD7C" d="M1000.5,511.3h56.2V535c0,30.9-25.3,56.2-56.2,56.2h0V511.3z"/>
			<path fill-rule="evenodd" clip-rule="evenodd" fill="#FDCC97" d="M956.6,385.5h60.2c22.3,0,40.5,18.2,40.5,40.5v94.1
				c0,28.9-23.6,52.5-52.5,52.5H889.4c-20.1,0-36.5-16.4-36.5-36.5v-46.8C852.9,432.2,899.5,385.5,956.6,385.5"/>
			<path fill-rule="evenodd" clip-rule="evenodd" fill="#FDF9CE" d="M858.8,556c-3.8-5.7-5.9-12.6-5.9-19.9v-15.3h83.4
				c0,19.4-15.9,35.3-35.3,35.3H858.8z"/>
			<path fill-rule="evenodd" clip-rule="evenodd" fill="#FFCC06" d="M1055.6,430.1H909c-40,0-72.7-32.7-72.7-72.7h149.9
				c39.1,0,71,32,71,71v0C1057.2,429.4,1056.5,430.1,1055.6,430.1"/>
			<path fill-rule="evenodd" clip-rule="evenodd" fill="#FFCC06" d="M1030.9,430.1h-35.3c0,15.6,12.8,28.4,28.4,28.4h6.9V430.1z"/>
			<path fill-rule="evenodd" clip-rule="evenodd" fill="#FFCC06" d="M1057.2,430.1h-26.3v39.2c0,14.5,11.8,26.3,26.3,26.3h0V430.1z"
				/>
			<path fill-rule="evenodd" clip-rule="evenodd" fill="#FDCC97" d="M1018.3,456V482c14.3,0,25.9-11.6,25.9-25.9
				s-11.6-25.9-25.9-25.9V456z"/>
			<rect x="1018.3" y="700.1" fill-rule="evenodd" clip-rule="evenodd" fill="#1B1B1B" width="59" height="183.5"/>
			<rect x="1046.1" y="700.1" fill-rule="evenodd" clip-rule="evenodd" fill="#FDF9CE" width="3.5" height="170.7"/>
			<path fill-rule="evenodd" clip-rule="evenodd" fill="#F15F61" d="M1077.3,870.8h-37.7c-22.2,0-40.4,18.2-40.4,40.4h71.3
				c3.8,0,6.9-3.1,6.9-6.9V870.8z"/>
			<rect x="1053.9" y="700.1" fill-rule="evenodd" clip-rule="evenodd" fill="#FDF9CE" width="3.5" height="170.7"/>
			<path fill-rule="evenodd" clip-rule="evenodd" fill="#F15F61" d="M858.5,468.2L858.5,468.2c5.9,0,10.8,4.9,10.8,10.8v22.3
				c0,5.9-4.9,10.8-10.8,10.8h0c-5.9,0-10.8-4.9-10.8-10.8V479C847.8,473,852.6,468.2,858.5,468.2"/>
			<path fill="#43BB90" d="M1050.6,567.3c-0.1-6.3,4.9-11.6,11.2-11.7c6.3-0.1,11.6,4.9,11.7,11.2l0,1.3l0,0.3l0,1.1v0h0
				c0,34.2-17.2,65.1-44.9,87.3c-27,21.6-64.2,35-105.1,35c-25.1,0-49.4-5.1-71-14.5c-21.7-9.5-40.6-23.4-54.5-40.7
				c-4-4.9-3.2-12.2,1.8-16.1c4.9-4,12.2-3.2,16.1,1.8c11.6,14.4,27.4,26,45.8,34c18.6,8.1,39.8,12.6,61.8,12.6
				c35.6,0,67.7-11.4,90.8-29.9c22.4-17.9,36.2-42.5,36.2-69.4h0l0-1l0,0L1050.6,567.3z"/>
			<path fill-rule="evenodd" clip-rule="evenodd" fill="#000001" d="M882.8,455.2h34.9c2.5,0,4.5,2,4.5,4.5c0,2.5-2,4.5-4.5,4.5
				h-34.9c-2.5,0-4.5-2-4.5-4.5C878.3,457.3,880.3,455.2,882.8,455.2"/>
			<path fill-rule="evenodd" clip-rule="evenodd" fill="#000001" d="M786.1,587.3c5.8-4.7,18.1,0.9,27.4,12.5
				c9.3,11.6,12.2,24.7,6.4,29.4c-5.8,4.7-18.1-0.9-27.4-12.5C783.1,605.1,780.3,591.9,786.1,587.3"/>
			<path fill-rule="evenodd" clip-rule="evenodd" fill="#1B1B1B" d="M788.6,589c5.1-4.1,16,0.8,24.3,11c8.3,10.2,10.8,21.9,5.6,26
				c-5.1,4.1-16-0.8-24.3-11C786,604.8,783.4,593.1,788.6,589"/>
			<path fill-rule="evenodd" clip-rule="evenodd" fill="#FDF9CE" d="M792.3,590.7c4.3-3.5,13.5,0.7,20.5,9.3c7,8.7,9.1,18.5,4.8,22
				c-4.3,3.5-13.5-0.7-20.5-9.3C790.1,604.1,788,594.2,792.3,590.7"/>
			<path fill-rule="evenodd" clip-rule="evenodd" fill="#000001" d="M786.5,582.5l2.8,4.4c0.6,0.9,0.3,2.1-0.6,2.7
				c-0.9,0.6-2.1,0.3-2.7-0.6l-2.8-4.4c-0.6-0.9-0.3-2.1,0.6-2.7C784.7,581.3,785.9,581.5,786.5,582.5"/>
			<path fill-rule="evenodd" clip-rule="evenodd" fill="#FDCC97" d="M798.3,614.6c4.2,0,7.6,3.4,7.6,7.6c0,4.2-3.4,7.6-7.6,7.6
				c-4.2,0-7.6-3.4-7.6-7.6C790.7,618,794.1,614.6,798.3,614.6"/>
			<path fill-rule="evenodd" clip-rule="evenodd" fill="#000001" d="M798.2,594.7l7,10.4c0.7,1-1.1,1.7-1.6,1l-7.1-10.4
				C795.7,594.3,797.6,593.7,798.2,594.7"/>
			<path fill-rule="evenodd" clip-rule="evenodd" fill="#000001" d="M809.9,601.3l-4.9,4.8c-1.3,1.3-1.8-0.9-1.3-1.4l4.9-4.8
				C809.8,598.8,810.7,600.5,809.9,601.3"/>
		</g>
	</g>
	<g>
		<path fill-rule="evenodd" clip-rule="evenodd" fill="#263719" d="M495.4,874.7c115.2,0,208.5,9.5,208.5,21.3
			c0,11.8-93.4,21.3-208.5,21.3c-115.2,0-208.5-9.5-208.5-21.3C286.9,884.2,380.2,874.7,495.4,874.7"/>
		<g>
			<rect x="446.1" y="864.2" fill-rule="evenodd" clip-rule="evenodd" fill="#008E67" width="98.7" height="6.7"/>
			<path fill-rule="evenodd" clip-rule="evenodd" fill="#008E67" d="M446.1,870.9h46.6v0.6c0,12.7-10.4,23.1-23.1,23.1h-0.9
				c-12.4,0-22.6-10.2-22.6-22.6V870.9z"/>
			<path fill-rule="evenodd" clip-rule="evenodd" fill="#008E67" d="M498.2,870.9h46.6v1.1c0,12.4-10.2,22.6-22.6,22.6h-1.5
				c-12.4,0-22.6-10.2-22.6-22.6V870.9z"/>
			<path fill="#FDCC97" d="M684,819.3l0,65.5c0,5.2-4.2,9.4-9.4,9.4c-5.2,0-9.4-4.2-9.4-9.4l0-65.5c0-0.3,0-0.6,0-0.8
				c0-10.8-4.4-20.6-11.5-27.7c-7.1-7.1-16.9-11.5-27.7-11.5c-5.2,0-9.4-4.2-9.4-9.4c0-5.2,4.2-9.4,9.4-9.4c16,0,30.5,6.5,41,17
				c10.5,10.5,17,25,17,41C684,818.8,684,819.1,684,819.3"/>
			<path fill-rule="evenodd" clip-rule="evenodd" fill="#FFCC06" d="M406,760.6h178.8v47.3c0,36.4-29.8,66.2-66.2,66.2h-46.4
				c-36.4,0-66.2-29.8-66.2-66.2V760.6z"/>
			<path fill-rule="evenodd" clip-rule="evenodd" fill="#FDCC97" d="M418,711.4l154.8-26.4v103.9c0,42.6-34.8,77.4-77.4,77.4
				c-42.6,0-77.4-34.8-77.4-77.4V711.4z"/>
			<path fill-rule="evenodd" clip-rule="evenodd" fill="#FDCC97" d="M418,733.3v21.9c-12.1,0-21.9-9.8-21.9-21.9
				c0-12.1,9.8-21.9,21.9-21.9V733.3z"/>
			<path fill-rule="evenodd" clip-rule="evenodd" fill="#FDCC97" d="M572.8,733.3v21.9c12.1,0,21.9-9.8,21.9-21.9
				c0-12.1-9.8-21.9-21.9-21.9V733.3z"/>
			<path fill-rule="evenodd" clip-rule="evenodd" fill="#FDF9CE" d="M481.5,802.3h27.7c17.4,0,31.6,14.2,31.6,31.6h-91
				C449.9,816.5,464.2,802.3,481.5,802.3"/>
			<path fill-rule="evenodd" clip-rule="evenodd" fill="#F15F61" d="M495.4,748.1L495.4,748.1c5.9,0,10.8,4.9,10.8,10.8v22.3
				c0,5.9-4.9,10.8-10.8,10.8h0c-5.9,0-10.8-4.9-10.8-10.8v-22.3C484.6,753,489.5,748.1,495.4,748.1"/>
			<path fill-rule="evenodd" clip-rule="evenodd" fill="#000001" d="M450.4,731.2L477,745c1.8,0.9,2.5,3.1,1.5,4.9l0,0
				c-0.9,1.8-3.1,2.5-4.9,1.5L447,737.7c-1.8-0.9-2.5-3.1-1.5-4.9v0C446.4,731,448.6,730.3,450.4,731.2"/>
			<path fill-rule="evenodd" clip-rule="evenodd" fill="#000001" d="M540.4,731.2L513.9,745c-1.8,0.9-2.5,3.1-1.5,4.9l0,0
				c0.9,1.8,3.1,2.5,4.9,1.5l26.6-13.8c1.8-0.9,2.5-3.1,1.5-4.9v0C544.4,731,542.2,730.3,540.4,731.2"/>
			<path fill-rule="evenodd" clip-rule="evenodd" fill="#F15F61" d="M596.4,686.2c-20.8,7.8-21.2-2.3-40.2-19.5
				c-20.9-18.9-52.8-21.4-77.4-10C395.6,695.2,596.4,771.2,596.4,686.2"/>
			<path fill-rule="evenodd" clip-rule="evenodd" fill="#F15F61" d="M418,711.4h30.4c24.5,0,44.6-20.1,44.6-44.6v-0.3
				c0-3.4-2.7-6.1-6.1-6.1H469C440.9,660.4,418,683.4,418,711.4L418,711.4z"/>
			<path fill-rule="evenodd" clip-rule="evenodd" fill="#F15F61" d="M418,711.4h16.2v15.3c0,8.9-7.3,16.2-16.2,16.2V711.4z"/>
			<path fill-rule="evenodd" clip-rule="evenodd" fill="#F15F61" d="M572.8,711.4h-16.2v15.3c0,8.9,7.3,16.2,16.2,16.2V711.4z"/>
			<path fill-rule="evenodd" clip-rule="evenodd" fill="#FFCC06" d="M584.8,760.6h41.3v11.3c0,21.8-17.8,39.6-39.6,39.6h-1.7V760.6z
				"/>
			<path fill-rule="evenodd" clip-rule="evenodd" fill="#FDCC97" d="M674.7,879.7c8,0,14.5,6.5,14.5,14.5c0,8-6.5,14.5-14.5,14.5
				c-8,0-14.5-6.5-14.5-14.5C660.1,886.2,666.6,879.7,674.7,879.7"/>
			<path fill-rule="evenodd" clip-rule="evenodd" fill="#FDCC97" d="M662.7,878.8c4,0,7.3,3.3,7.3,7.3c0,4-3.3,7.3-7.3,7.3
				s-7.3-3.3-7.3-7.3C655.4,882.1,658.6,878.8,662.7,878.8"/>
			<path fill="#FDCC97" d="M306.8,819.3l0,65.5c0,5.2,4.2,9.4,9.4,9.4c5.2,0,9.4-4.2,9.4-9.4l0-65.5c0-0.3,0-0.6,0-0.8
				c0-10.8,4.4-20.6,11.5-27.7c7.1-7.1,16.9-11.5,27.7-11.5c5.2,0,9.4-4.2,9.4-9.4c0-5.2-4.2-9.4-9.4-9.4c-16,0-30.5,6.5-41,17
				c-10.5,10.5-17,25-17,41C306.8,818.8,306.8,819.1,306.8,819.3"/>
			<path fill-rule="evenodd" clip-rule="evenodd" fill="#FFCC06" d="M406,760.6h-41.3v11.3c0,21.8,17.8,39.6,39.6,39.6h1.7V760.6z"
				/>
			<path fill-rule="evenodd" clip-rule="evenodd" fill="#FDCC97" d="M316.2,879.7c-8,0-14.5,6.5-14.5,14.5c0,8,6.5,14.5,14.5,14.5
				c8,0,14.5-6.5,14.5-14.5C330.7,886.2,324.2,879.7,316.2,879.7"/>
			<path fill-rule="evenodd" clip-rule="evenodd" fill="#FDCC97" d="M328.2,878.8c-4,0-7.3,3.3-7.3,7.3c0,4,3.3,7.3,7.3,7.3
				c4,0,7.3-3.3,7.3-7.3C335.5,882.1,332.2,878.8,328.2,878.8"/>
		</g>
	</g>
</g>
</svg>
