<?xml version="1.0" encoding="utf-8"?>
<!-- Generator: Adobe Illustrator 18.0.0, SVG Export Plug-In . SVG Version: 6.00 Build 0)  -->
<!DOCTYPE svg PUBLIC "-//W3C//DTD SVG 1.1//EN" "http://www.w3.org/Graphics/SVG/1.1/DTD/svg11.dtd" [
	<!ENTITY ns_flows "http://ns.adobe.com/Flows/1.0/">
	<!ENTITY ns_extend "http://ns.adobe.com/Extensibility/1.0/">
	<!ENTITY ns_ai "http://ns.adobe.com/AdobeIllustrator/10.0/">
	<!ENTITY ns_graphs "http://ns.adobe.com/Graphs/1.0/">
]>
<svg version="1.1" xmlns:x="&ns_extend;" xmlns:i="&ns_ai;" xmlns:graph="&ns_graphs;"
	 xmlns="http://www.w3.org/2000/svg" xmlns:xlink="http://www.w3.org/1999/xlink" xmlns:a="http://ns.adobe.com/AdobeSVGViewerExtensions/3.0/"
	 x="0px" y="0px" width="1400px" height="980px" viewBox="0 0 1400 980" enable-background="new 0 0 1400 980" xml:space="preserve"
	>
<g id="Layer_2">
</g>
<g id="Layer_1">
	<g>
		<g>
			<circle fill="#191919" cx="161.9" cy="155" r="24.6"/>
			<path fill="#191919" d="M110.5,454.6c1.7,0.8,3.5,1.2,5.3,1.2c4.5,0,8.8-2.5,10.9-6.8l30.4-62.4c0.6-1.2,1-2.5,1.1-3.9l6.3-53.1
				l13.5,49.2l1.6,65.2c0.2,6.6,5.6,11.8,12.1,11.8c0.1,0,0.2,0,0.3,0c6.7-0.2,12-5.7,11.8-12.4l-1.7-66.6c0-1-0.2-2-0.4-2.9
				l-22.2-81.1v-84.1l33.2,7c0.6,0.1,1.2,0.2,1.8,0.2c3.2,0,6.2-1.7,7.8-4.6l25-45.5c0.4-0.7,0.6-1.3,0.8-2h0.7
				c5.5,0,9.9-4.4,9.9-9.9v-20.4h8.9l9.6,49.4c0.7,3.5,3.4,6.2,6.8,7l43.3,9.5c0,0.2,0,0.4,0,0.6v94.6l-40,146.2
				c-1.8,6.5,2,13.1,8.5,14.9c1.1,0.3,2.1,0.4,3.2,0.4c5.3,0,10.2-3.5,11.7-8.9l34.6-126.4L380,446.9c1.5,5.4,6.4,8.9,11.7,8.9
				c1.1,0,2.1-0.1,3.2-0.4c6.5-1.8,10.3-8.4,8.5-14.9L363,292.9v-93c0-0.2,0-0.4,0-0.6l43.3-9.5c3.5-0.8,6.2-3.5,6.8-7l9.6-49.4h8.9
				v20.4c0,5.5,4.4,9.9,9.9,9.9h18.5c5.5,0,9.9-4.4,9.9-9.9v-49.7c0-5.5-4.4-9.9-9.9-9.9h-18.5c-5.5,0-9.9,4.4-9.9,9.9v20.4h-9.4
				c-1.2-2.2-3.4-3.8-6-4.3c-3.8-0.7-7.5,1.1-9.4,4.3H283.7c-1.8-3.2-5.6-5-9.4-4.3c-2.6,0.5-4.8,2.1-6,4.3h-9.4v-20.4
				c0-5.5-4.4-9.9-9.9-9.9h-18.5c-5.5,0-9.9,4.4-9.9,9.9v20.8c-3.7,0.5-6.7,3.3-7.5,7.1l-7.8,39.7l-35.6,12.1
				c-2.4-1.2-5-1.8-7.8-1.8c-9.8,0-17.8,8-17.8,17.8V295c0,0.4,0,0.8,0,1.2l-9.7,81.6L105,438.4C102,444.4,104.5,451.7,110.5,454.6z
				 M396.8,173.7l-44.6,9.8c-2.1-0.9-4.5-1.4-6.9-1.4s-4.8,0.5-6.9,1.4l-44.6-9.8l-7.8-40.3h47.7c-2.9,1.6-5.6,3.8-7.7,6.6
				c-8.3,10.7-6.4,26.2,4.4,34.5c10.7,8.3,26.2,6.4,34.5-4.4c8.3-10.7,6.4-26.2-4.4-34.5c-1.1-0.8-2.2-1.6-3.4-2.2h47.7L396.8,173.7
				z M225.3,162.3c1,0.6,2,1,3.2,1.3l-5.3,9.7L225.3,162.3z M215.5,187.1l-5.4,9.9l-14.6-3.1L215.5,187.1z"/>
		</g>
		<g>
			<circle fill="#191919" cx="1273.5" cy="155" r="24.6"/>
			<path fill="#191919" d="M1030.6,386l33.8-16.6h38.1l33.8,16.6l-19.5,53.6c-2.3,6.3,1,13.3,7.3,15.5c1.4,0.5,2.8,0.7,4.1,0.7
				c5,0,9.6-3.1,11.4-8l23.2-63.8c2-5.6-0.3-11.8-5.5-14.7h20.1v78h11.5v-78h6.4v-18h-74.5l-18.2-9V270c0-0.2,0-0.4,0-0.6l43.3-9.5
				c3.5-0.8,6.2-3.5,6.8-7l9.6-49.4h8.9V224c0,5.5,4.4,9.9,9.9,9.9h8c0.4,0.3,0.9,0.5,1.4,0.7l33.9,12.9c1,0.4,2.1,0.6,3.2,0.6
				c2.7,0,5.4-1.3,7.1-3.5l21.2-28v75.8l-38.8,71.1c-1,1.8-1.5,3.8-1.5,5.8l-0.2,74.4c0,6.7,5.4,12.1,12.1,12.2c0,0,0,0,0,0
				c6.7,0,12.1-5.4,12.1-12.1l0.2-71.3l27.4-50.4v47.3c0,2,0.5,4,1.5,5.8l40.7,74.4c2.2,4,6.4,6.3,10.7,6.3c2,0,4-0.5,5.8-1.5
				c5.9-3.2,8-10.6,4.8-16.5l-39.2-71.6V295c0-0.6-0.1-1.2-0.1-1.8v-93.4c0-9.8-8-17.8-17.8-17.8c-3.8,0-7.4,1.2-10.3,3.3
				c-3.2-0.6-6.6,0.6-8.7,3.4l-30.2,39.8l-14.9-5.7v-48.5c0-5.5-4.4-9.9-9.9-9.9H1181c-5.5,0-9.9,4.4-9.9,9.9v20.4h-9.4
				c-1.2-2.2-3.4-3.8-6-4.3c-3.8-0.7-7.5,1.1-9.4,4.3h-123.2c-1.8-3.2-5.6-5-9.4-4.3c-2.6,0.5-4.8,2.1-6,4.3h-9.4v-20.4
				c0-5.5-4.4-9.9-9.9-9.9h-18.5c-5.5,0-9.9,4.4-9.9,9.9V224c0,5.5,4.4,9.9,9.9,9.9h18.5c5.5,0,9.9-4.4,9.9-9.9v-20.4h8.9l9.6,49.4
				c0.7,3.5,3.4,6.2,6.8,7l43.3,9.5c0,0.2,0,0.4,0,0.6v71l-20.9,10.3h-71.9v18h6.4v78h11.5v-78h17.4c-5.1,2.9-7.5,9.1-5.5,14.7
				l23.2,63.8c1.8,4.9,6.4,8,11.4,8c1.4,0,2.8-0.2,4.1-0.7c6.3-2.3,9.5-9.3,7.3-15.5L1030.6,386z M1025.4,203.6h47.7
				c-2.9,1.6-5.6,3.8-7.7,6.6c-8.3,10.7-6.4,26.2,4.4,34.5c10.7,8.3,26.2,6.4,34.5-4.4c8.3-10.7,6.4-26.2-4.4-34.5
				c-1.1-0.8-2.2-1.6-3.4-2.2h47.7l-7.8,40.3l-44.6,9.8c-2.1-0.9-4.5-1.4-6.9-1.4s-4.8,0.5-6.9,1.4l-44.6-9.8L1025.4,203.6z"/>
		</g>
		<g>
			<circle fill="#191919" cx="821" cy="585" r="24.6"/>
			<path fill="#191919" d="M933.6,663c-1.9-1.9-4.9-1.9-6.7,0l-5.3,5.3l-9.3-9.3c0.6-1.9,0.6-4-0.1-5.9c-1.7-4.5-6.6-6.7-11.1-5.3
				l-8.7-8.7l5.3-5.3c1.9-1.9,1.9-4.9,0-6.7l-6.3-6.3c-1.9-1.9-4.9-1.9-6.7,0l-16.9,16.9c-1.9,1.9-1.9,4.9,0,6.7l6.3,6.3
				c1.9,1.9,4.9,1.9,6.7,0l5.3-5.3l5.9,5.9l-19,7.3l-32-40.9c-2.5-3.2-6.7-4.2-10.2-2.8c-2.8-1.8-6-2.8-9.6-2.8
				c-3.8,0-7.4,1.2-10.3,3.3c-3.2-0.6-6.6,0.6-8.7,3.4l-30.2,39.8l-18.9-7.2l5.9-5.9l5.3,5.3c1.9,1.9,4.9,1.9,6.7,0l6.3-6.3
				c1.9-1.9,1.9-4.9,0-6.7l-16.9-16.9c-1.9-1.9-4.9-1.9-6.7,0l-6.3,6.3c-1.9,1.9-1.9,4.9,0,6.7l5.3,5.3l-8.7,8.7
				c-4.5-1.5-9.4,0.8-11.1,5.3c-0.8,2-0.8,4.1-0.1,5.9l-9.3,9.3L718,663c-1.9-1.9-4.9-1.9-6.7,0l-6.3,6.3c-1.9,1.9-1.9,4.9,0,6.7
				l16.9,16.9c1.9,1.9,4.9,1.9,6.7,0l6.3-6.3c1.9-1.9,1.9-4.9,0-6.7l-5.3-5.3l9.6-9.6l32.6,12.5c1,0.4,2.1,0.6,3.2,0.6
				c2.7,0,5.4-1.3,7.1-3.5l21.2-28v77.8l-40,146.2c-1.8,6.5,2,13.1,8.5,14.9c1.1,0.3,2.1,0.4,3.2,0.4c5.3,0,10.2-3.5,11.7-8.9
				l34.6-126.4l34.6,126.4c1.5,5.4,6.4,8.9,11.7,8.9c1.1,0,2.1-0.1,3.2-0.4c6.5-1.8,10.3-8.4,8.5-14.9l-40.4-147.7v-78.9l24.1,30.8
				c1.7,2.2,4.3,3.4,7,3.4c1.1,0,2.1-0.2,3.2-0.6l32.6-12.5l9.6,9.6l-5.3,5.3c-1.9,1.9-1.9,4.9,0,6.7l6.3,6.3c1.9,1.9,4.9,1.9,6.7,0
				l16.9-16.9c1.9-1.9,1.9-4.9,0-6.7L933.6,663z"/>
			<path fill="#191919" d="M644.1,569.9c-8.2,10.7-6.3,26.2,4.3,34.5c10.6,8.3,25.8,6.4,34-4.4c8.2-10.7,6.3-26.2-4.3-34.5
				C667.6,557.2,652.4,559.2,644.1,569.9z"/>
			<path fill="#191919" d="M700.8,805.5c0-0.6-0.1-1.2-0.3-1.7l-18.3-80.4v-72.3l16.4,12.8c1.6,1.2,3.5,1.9,5.5,1.9
				c0.7,0,1.4-0.1,2.1-0.2c2.6-0.6,4.8-2.4,6-4.9l18.6-39.9c2.1-4.5,0.2-9.7-4.3-11.8c-0.8-0.4-1.6-0.6-2.4-0.7l1.1-3.1
				c0.5-1.5-0.3-3.1-1.8-3.7L717,599c-1.5-0.5-3.1,0.3-3.7,1.8l-6.7,19.1c-0.5,1.5,0.3,3.1,1.8,3.7l1.2,0.4l-8.8,18.9l-18.6-14.5
				c-0.7-9.2-8.4-16.4-17.7-16.4c-9.8,0-17.8,8-17.8,17.8v95.2c0,0,0,0,0,0.1l-19.3,81.8L607.4,870c-2,6.4,1.5,13.2,7.9,15.2
				c1.2,0.4,2.4,0.6,3.7,0.6c5.2,0,9.9-3.3,11.6-8.5l20.1-63.6c0.1-0.3,0.2-0.6,0.2-0.9l13.7-58l12.1,53.4l5.2,66.4
				c0.5,6.4,5.8,11.2,12.1,11.2c0.3,0,0.6,0,1,0c6.7-0.5,11.7-6.4,11.1-13L700.8,805.5z"/>
		</g>
		<g>
			<circle fill="#191919" cx="649.7" cy="230.1" r="24.6"/>
			<path fill="#191919" d="M655.7,455.9c0.5,0,0.9,0,1.4-0.1c3.4-0.4,6.4-2.2,8.3-4.8h248.4c2,0,3.6-1.6,3.6-3.6
				c0-2-1.6-3.6-3.6-3.6H667.9c0-0.5,0-0.9-0.1-1.4l-5-43.4l17.1-23.7c0.4,0.1,0.9,0.1,1.3,0.1c2.4,0,4.8-1,6.6-2.9L744,425
				c0,5.5,2.5,10.9,7.3,14.3c3.2,2.3,6.8,3.4,10.5,3.4c5.5,0,10.9-2.5,14.4-7.3l49.8-68.3l24.3,5.9c0.7,0.2,1.4,0.3,2.1,0.3
				c2,0,3.9-0.7,5.5-1.9c2.1-1.7,3.4-4.3,3.4-7l0-67.6c0-4.9-4-8.9-8.9-8.9c-0.9,0-1.8,0.1-2.6,0.4c-5.8-11.6-19.7-16.8-31.7-11.6
				c-12.5,5.4-18.2,19.8-12.9,32.3s19.8,18.2,32.3,12.9c2.2-1,4.2-2.2,6-3.7l0,34.9l-7.8-1.9c1.4-6.7-1-13.9-6.9-18.2
				c-7.9-5.8-19.1-4.1-24.9,3.9l-48.1,65.9l-65.2-60.7c-2.5-2.4-6-3.5-9.5-3.2c-3.5,0.3-6.6,2.1-8.7,5l-2.1,2.9L646,327.8l-6.2-46.6
				l2.1-3.5c5.1-8.4,2.3-19.4-6.1-24.4c-8.4-5.1-19.4-2.3-24.4,6.1L562.5,341c-3.4,5.7-3.3,12.6-0.2,18l-7.5,72.4l-47.9-0.4
				c0,0-0.1,0-0.1,0c-6.7,0-12.1,5.4-12.1,12c-0.1,6.7,5.3,12.2,12,12.2l58.9,0.5c0,0,0.1,0,0.1,0c6.2,0,11.4-4.7,12.1-10.9
				l8.2-79.1c1.7-0.9,3.2-2,4.6-3.4l45.6,17.8l1.4,12.1l-24.9,34.4c-3.9,5.4-2.7,13,2.7,16.9h-15.9c-2,0-3.6,1.6-3.6,3.6
				c0,2,1.6,3.6,3.6,3.6H646C648.3,454,651.8,455.9,655.7,455.9z M651.8,360.4l-48.2-18.8l21.5-35.8l3.7,28c0.3,2.3,1.5,4.4,3.3,5.8
				l27.9,21.8l-2.6,3.6C656.1,362.9,654.1,361.3,651.8,360.4z M632.4,441l9.3-12.9l1.8,15.6h-13.8C630.7,443,631.6,442.1,632.4,441z
				"/>
		</g>
		<g>
			<circle fill="#191919" cx="232.7" cy="798.2" r="24.6"/>
			<circle fill="#191919" cx="229.1" cy="671.2" r="24.6"/>
			<path fill="#191919" d="M192.6,741.6c0.7,3.9,3.9,6.8,7.8,7.2l51.6,5.6c0.3,0,0.6,0.1,1,0.1c4.5,0,8.3-3.4,8.8-7.9
				c0.5-4.9-3-9.3-7.9-9.8l-18.1-2l37.7-7.7c4.8-1,7.9-5.7,6.9-10.5c-1-4.8-5.7-7.9-10.5-6.9l-39.7,8.1l-24.8-28.2
				c0.2-2.6-0.3-5.3-1.3-7.9c-3.8-9.1-14.2-13.4-23.3-9.6L93,708.5c-7.2,3-11.4,10.2-10.9,17.7l-9.7,81.6l-29.5,60.6
				c-2.9,6-0.4,13.3,5.6,16.2c1.7,0.8,3.5,1.2,5.3,1.2c4.5,0,8.8-2.5,10.9-6.8l30.4-62.4c0.6-1.2,1-2.5,1.1-3.9l6.3-53.1l13.5,49.2
				l1.6,65.2c0.2,6.6,5.6,11.8,12.1,11.8c0.1,0,0.2,0,0.3,0c6.7-0.2,12-5.7,11.8-12.4l-1.7-66.6c0-1-0.2-2-0.4-2.9l-18.7-68.5
				l65.3-27.1L192.6,741.6z M208.9,731.9l-2.8-14.7l14,15.9L208.9,731.9z"/>
			<path fill="#191919" d="M566.6,866.4h-17.9c0.3-0.7,0.4-1.5,0.6-2.3c1-6.6-3.6-12.8-10.2-13.8l-97.9-14.5l-50.7-25
				c0.3-9.1-6.3-17.1-15.5-18.3l-95.2-12c-9.7-1.2-18.7,5.7-19.9,15.4c-1,7.7,3.1,14.8,9.6,18.1l11.4,23.8l-7.4,27.3
				c-0.1,0.4-0.2,0.8-0.2,1.3h-76.7c-2,0-3.6,1.6-3.6,3.6s1.6,3.6,3.6,3.6h79.1c1.1,1.1,2.4,1.9,4,2.4c0.8,0.2,1.6,0.3,2.3,0.3
				c2.4,0,4.7-1,6.4-2.7h242.6l4.6,0.7c0.6,0.1,1.2,0.1,1.8,0.1c1.5,0,3-0.3,4.3-0.8h25c2,0,3.6-1.6,3.6-3.6
				S568.7,866.4,566.6,866.4z M291.5,866.4l7.3-27.1c0.6-2.1,0.4-4.2-0.6-6.2l-7.3-15.3l79,10l62.1,30.7c1.1,0.6,2.3,0.9,3.6,1.1
				l45.9,6.8H291.5z"/>
		</g>
		<g>
			<circle fill="#191919" cx="1203.3" cy="660.1" r="24.6"/>
			<path fill="#191919" d="M1346.3,861c0,0-0.1,0-0.1,0l-47.9,0.4l-7.5-72.4c3.1-5.4,3.3-12.3-0.2-18l-48.9-81.6
				c-5.1-8.4-16-11.2-24.4-6.1c-3.2,1.9-5.6,4.7-7,7.9l-27.8,10.9l-16-11.1c1-3.2,1.5-6.6,1.5-10.2c0-19.2-15.5-34.7-34.7-34.7
				c-19.2,0-34.7,15.5-34.7,34.7c0,15.6,10.3,28.8,24.5,33.2l-2.4,23.3c-0.2,2.1,0.3,4.2,1.5,6l9.7,13.9l-80.1,2.7
				c-4.1,0.1-7.9,1.7-10.8,4.2l-70.5-1.6c-3.3-0.1-6.5,1.2-8.8,3.5c-2.3,2.3-3.6,5.5-3.6,8.8l1.7,85.7c0.1,6.6,5.5,11.9,12.1,11.9
				c0.1,0,0.2,0,0.2,0c6.7-0.1,12-5.7,11.9-12.4l-1.5-73.1l8.1,0.2v8.5h5.5v78h9.9v-78h159.3v78h9.9v-78h5.5v-16.8
				c11,3.6,23.4-1,29.2-11.6c6.5-11.9,2.1-26.9-9.8-33.4s-26.9-2.1-33.4,9.8c-6.5,11.9-2.1,26.9,9.8,33.4c0.4,0.2,0.7,0.4,1.1,0.6
				h-12c0.2-1.3,0.3-2.6,0.3-3.9c-0.3-7.7-5.4-14.1-12.4-16.3l-15-21.6l2.2-21.2c6.1-1.4,11.6-4.4,16.1-8.5l19.2,13.3
				c1.5,1,3.3,1.6,5.1,1.6c1.1,0,2.2-0.2,3.3-0.6l27.7-10.9l37.2,62.1l-48.2,18.8c-4.2,1.6-7.1,5.4-7.6,9.9l-8.3,72
				c-0.8,6.7,4,12.7,10.7,13.4c0.5,0.1,0.9,0.1,1.4,0.1c6.1,0,11.3-4.6,12-10.7l7.5-64.8l45.6-17.8c1.3,1.4,2.9,2.5,4.6,3.4
				l8.2,79.1c0.6,6.2,5.9,10.9,12.1,10.9c0,0,0.1,0,0.1,0l58.9-0.5c6.7-0.1,12.1-5.5,12-12.2C1358.3,866.4,1352.9,861,1346.3,861z"
				/>
		</g>
	</g>
</g>
</svg>
